<svg xmlns="http://www.w3.org/2000/svg" width="128.86" height="35" viewBox="0 0 128.86 35"><rect class="svg__rect" x="0" y="0" width="87.22" height="35" fill="#000000"/><rect class="svg__rect" x="85.22" y="0" width="43.64" height="35" fill="#E46C17"/><path class="svg__text" d="M16.67 22L14.22 22L14.22 13.47L16.74 13.47Q17.87 13.47 18.74 13.97Q19.62 14.48 20.10 15.40Q20.58 16.33 20.58 17.52L20.58 17.52L20.58 17.95Q20.58 19.16 20.10 20.08Q19.61 21.00 18.72 21.50Q17.83 22 16.67 22L16.67 22ZM15.70 14.66L15.70 20.82L16.67 20.82Q17.83 20.82 18.46 20.09Q19.08 19.36 19.09 17.99L19.09 17.99L19.09 17.52Q19.09 16.13 18.49 15.40Q17.89 14.66 16.74 14.66L16.74 14.66L15.70 14.66ZM30.62 22L25.05 22L25.05 13.47L30.58 13.47L30.58 14.66L26.53 14.66L26.53 17.02L30.03 17.02L30.03 18.19L26.53 18.19L26.53 20.82L30.62 20.82L30.62 22ZM37.12 22L34.06 13.47L35.68 13.47L37.82 20.14L39.99 13.47L41.62 13.47L38.55 22L37.12 22ZM45.30 18.00L45.30 18.00L45.30 17.52Q45.30 16.28 45.74 15.32Q46.19 14.37 46.99 13.86Q47.80 13.35 48.84 13.35Q49.88 13.35 50.69 13.85Q51.49 14.35 51.93 15.29Q52.37 16.23 52.38 17.48L52.38 17.48L52.38 17.96Q52.38 19.21 51.95 20.16Q51.51 21.10 50.71 21.61Q49.90 22.12 48.85 22.12L48.85 22.12Q47.81 22.12 47.00 21.61Q46.19 21.10 45.75 20.17Q45.31 19.23 45.30 18.00ZM46.78 17.46L46.78 17.96Q46.78 19.36 47.33 20.13Q47.88 20.90 48.85 20.90L48.85 20.90Q49.84 20.90 50.37 20.15Q50.90 19.40 50.90 17.96L50.90 17.96L50.90 17.51Q50.90 16.09 50.36 15.34Q49.82 14.58 48.84 14.58L48.84 14.58Q47.88 14.58 47.34 15.33Q46.80 16.09 46.78 17.46L46.78 17.46ZM58.33 22L56.84 22L56.84 13.47L60.11 13.47Q61.54 13.47 62.38 14.21Q63.22 14.96 63.22 16.18L63.22 16.18Q63.22 17.44 62.40 18.13Q61.57 18.83 60.09 18.83L60.09 18.83L58.33 18.83L58.33 22ZM58.33 14.66L58.33 17.64L60.11 17.64Q60.90 17.64 61.31 17.27Q61.73 16.90 61.73 16.19L61.73 16.19Q61.73 15.50 61.31 15.09Q60.89 14.68 60.15 14.66L60.15 14.66L58.33 14.66ZM67.07 19.42L67.07 19.42L68.55 19.42Q68.55 20.15 69.03 20.55Q69.51 20.95 70.41 20.95L70.41 20.95Q71.18 20.95 71.57 20.63Q71.96 20.32 71.96 19.80L71.96 19.80Q71.96 19.24 71.57 18.94Q71.17 18.63 70.14 18.32Q69.11 18.01 68.50 17.63L68.50 17.63Q67.33 16.90 67.33 15.72L67.33 15.72Q67.33 14.69 68.17 14.02Q69.01 13.35 70.36 13.35L70.36 13.35Q71.25 13.35 71.94 13.68Q72.64 14.01 73.04 14.61Q73.44 15.22 73.44 15.96L73.44 15.96L71.96 15.96Q71.96 15.29 71.54 14.91Q71.12 14.54 70.34 14.54L70.34 14.54Q69.62 14.54 69.22 14.85Q68.81 15.16 68.81 15.71L68.81 15.71Q68.81 16.18 69.25 16.50Q69.68 16.81 70.68 17.10Q71.67 17.40 72.28 17.78Q72.88 18.16 73.16 18.65Q73.44 19.13 73.44 19.79L73.44 19.79Q73.44 20.86 72.63 21.49Q71.81 22.12 70.41 22.12L70.41 22.12Q69.48 22.12 68.71 21.77Q67.93 21.43 67.50 20.83Q67.07 20.22 67.07 19.42Z" fill="#FFFFFF"/><path class="svg__text" d="M100.26 16.17L98.50 15.19Q98.99 14.37 99.88 13.90Q100.77 13.43 101.98 13.43L101.98 13.43Q102.94 13.43 103.68 13.74Q104.41 14.05 104.83 14.64Q105.24 15.22 105.24 15.99L105.24 15.99Q105.24 16.67 104.95 17.28Q104.65 17.89 103.81 18.65L103.81 18.65L102.23 20.11L105.47 20.11L105.47 22L98.93 22L98.93 20.51L102.07 17.57Q102.53 17.14 102.69 16.83Q102.84 16.53 102.84 16.22L102.84 16.22Q102.84 15.81 102.57 15.58Q102.29 15.35 101.76 15.35L101.76 15.35Q101.29 15.35 100.90 15.56Q100.52 15.77 100.26 16.17L100.26 16.17ZM110.93 16.17L109.17 15.19Q109.66 14.37 110.55 13.90Q111.44 13.43 112.65 13.43L112.65 13.43Q113.61 13.43 114.35 13.74Q115.08 14.05 115.50 14.64Q115.91 15.22 115.91 15.99L115.91 15.99Q115.91 16.67 115.62 17.28Q115.32 17.89 114.48 18.65L114.48 18.65L112.90 20.11L116.14 20.11L116.14 22L109.60 22L109.60 20.51L112.74 17.57Q113.20 17.14 113.36 16.83Q113.51 16.53 113.51 16.22L113.51 16.22Q113.51 15.81 113.24 15.58Q112.96 15.35 112.43 15.35L112.43 15.35Q111.96 15.35 111.57 15.56Q111.19 15.77 110.93 16.17L110.93 16.17Z" fill="#FFFFFF" x="98.22"/></svg>