<svg width="516.1024780273438px" height="107.01875px" xmlns="http://www.w3.org/2000/svg" viewBox="-8.051239013671875 21.490625 516.1024780273438 107.01875" style="background: rgb(0, 0, 0, 0);" preserveAspectRatio="xMidYMid"><defs><linearGradient id="editing-glowing-gradient" x1="0.8146601955249186" x2="0.18533980447508142" y1="0.8885729807284856" y2="0.11142701927151444"><stop offset="0" stop-color="#67ff43"></stop><stop offset="1" stop-color="#90ffff"></stop></linearGradient><filter id="editing-glowing" x="-100%" y="-100%" width="300%" height="300%"><feGaussianBlur in="SourceGraphic" result="blur" stdDeviation="10"></feGaussianBlur><feMerge><feMergeNode in="blur"></feMergeNode><feMergeNode in="SourceGraphic"></feMergeNode></feMerge></filter></defs><g filter="url(#editing-glowing)"><g transform="translate(66.96000480651855, 99.0078125)"><path d="M28.29 0L28.29 0L6.72 0L6.72 0Q5.50 0 4.96-0.54L4.96-0.54L4.96-0.54Q4.42-1.09 4.42-2.30L4.42-2.30L4.42-43.78L4.42-43.78Q4.42-44.99 4.96-45.54L4.96-45.54L4.96-45.54Q5.50-46.08 6.72-46.08L6.72-46.08L28.29-46.08L28.29-46.08Q36.29-46.08 40.16-42.88L40.16-42.88L40.16-42.88Q44.03-39.68 44.03-33.02L44.03-33.02L44.03-13.06L44.03-13.06Q44.03-6.40 40.16-3.20L40.16-3.20L40.16-3.20Q36.29 0 28.29 0ZM26.56-33.86L18.94-33.86L18.94-12.10L26.56-12.10L26.56-12.10Q28.10-12.10 28.83-12.86L28.83-12.86L28.83-12.86Q29.57-13.63 29.57-15.23L29.57-15.23L29.57-30.78L29.57-30.78Q29.57-32.38 28.83-33.12L28.83-33.12L28.83-33.12Q28.10-33.86 26.56-33.86L26.56-33.86ZM84.16 0L84.16 0L54.46 0L54.46 0Q53.25 0 52.70-0.54L52.70-0.54L52.70-0.54Q52.16-1.09 52.16-2.30L52.16-2.30L52.16-43.78L52.16-43.78Q52.16-44.99 52.70-45.54L52.70-45.54L52.70-45.54Q53.25-46.08 54.46-46.08L54.46-46.08L84.16-46.08L84.16-46.08Q85.38-46.08 85.92-45.54L85.92-45.54L85.92-45.54Q86.46-44.99 86.46-43.78L86.46-43.78L86.46-36.29L86.46-36.29Q86.46-35.07 85.92-34.53L85.92-34.53L85.92-34.53Q85.38-33.98 84.16-33.98L84.16-33.98L66.50-33.98L66.50-29.06L78.98-29.06L78.98-29.06Q80.19-29.06 80.74-28.51L80.74-28.51L80.74-28.51Q81.28-27.97 81.28-26.75L81.28-26.75L81.28-19.90L81.28-19.90Q81.28-18.69 80.74-18.14L80.74-18.14L80.74-18.14Q80.19-17.60 78.98-17.60L78.98-17.60L66.50-17.60L66.50-12.10L84.16-12.10L84.16-12.10Q85.38-12.10 85.92-11.55L85.92-11.55L85.92-11.55Q86.46-11.01 86.46-9.79L86.46-9.79L86.46-2.30L86.46-2.30Q86.46-1.09 85.92-0.54L85.92-0.54L85.92-0.54Q85.38 0 84.16 0ZM121.28 0L121.28 0L104.64 0L104.64 0Q103.42 0 102.62-0.45L102.62-0.45L102.62-0.45Q101.82-0.90 101.38-2.11L101.38-2.11L95.10-17.79L95.10-17.79Q94.53-19.20 94.14-20.26L94.14-20.26L94.14-20.26Q93.76-21.31 93.50-22.27L93.50-22.27L93.50-22.27Q93.25-23.23 93.15-24.29L93.15-24.29L93.15-24.29Q93.06-25.34 93.06-26.88L93.06-26.88L93.06-43.78L93.06-43.78Q93.06-44.99 93.60-45.54L93.60-45.54L93.60-45.54Q94.14-46.08 95.36-46.08L95.36-46.08L105.54-46.08L105.54-46.08Q106.75-46.08 107.39-45.54L107.39-45.54L107.39-45.54Q108.03-44.99 108.03-43.78L108.03-43.78L108.03-26.11L108.03-26.11Q108.03-25.47 108.16-24.83L108.16-24.83L108.16-24.83Q108.29-24.19 108.54-23.49L108.54-23.49L111.55-14.53L111.55-14.53Q111.74-13.89 112-13.66L112-13.66L112-13.66Q112.26-13.44 112.77-13.44L112.77-13.44L113.47-13.44L113.47-13.44Q113.98-13.44 114.24-13.66L114.24-13.66L114.24-13.66Q114.50-13.89 114.69-14.53L114.69-14.53L117.70-23.55L117.70-23.55Q117.95-24.26 118.08-24.90L118.08-24.90L118.08-24.90Q118.21-25.54 118.21-26.18L118.21-26.18L118.21-43.78L118.21-43.78Q118.21-44.99 118.75-45.54L118.75-45.54L118.75-45.54Q119.30-46.08 120.51-46.08L120.51-46.08L130.56-46.08L130.56-46.08Q131.78-46.08 132.32-45.54L132.32-45.54L132.32-45.54Q132.86-44.99 132.86-43.78L132.86-43.78L132.86-26.88L132.86-26.88Q132.86-25.34 132.77-24.29L132.77-24.29L132.77-24.29Q132.67-23.23 132.42-22.27L132.42-22.27L132.42-22.27Q132.16-21.31 131.78-20.26L131.78-20.26L131.78-20.26Q131.39-19.20 130.82-17.79L130.82-17.79L124.54-2.11L124.54-2.11Q124.10-0.90 123.30-0.45L123.30-0.45L123.30-0.45Q122.50 0 121.28 0ZM179.78-33.92L179.78-12.10L179.78-12.10Q179.78-9.15 178.91-6.75L178.91-6.75L178.91-6.75Q178.05-4.35 175.84-2.66L175.84-2.66L175.84-2.66Q173.63-0.96 169.76 0L169.76 0L169.76 0Q165.89 0.96 159.94 0.96L159.94 0.96L159.94 0.96Q153.98 0.96 150.08 0L150.08 0L150.08 0Q146.18-0.96 143.97-2.66L143.97-2.66L143.97-2.66Q141.76-4.35 140.90-6.75L140.90-6.75L140.90-6.75Q140.03-9.15 140.03-12.10L140.03-12.10L140.03-33.92L140.03-33.92Q140.03-36.86 140.90-39.26L140.90-39.26L140.90-39.26Q141.76-41.66 143.97-43.39L143.97-43.39L143.97-43.39Q146.18-45.12 150.08-46.08L150.08-46.08L150.08-46.08Q153.98-47.04 159.94-47.04L159.94-47.04L159.94-47.04Q165.89-47.04 169.76-46.08L169.76-46.08L169.76-46.08Q173.63-45.12 175.84-43.39L175.84-43.39L175.84-43.39Q178.05-41.66 178.91-39.26L178.91-39.26L178.91-39.26Q179.78-36.86 179.78-33.92L179.78-33.92ZM154.56-31.62L154.56-14.40L154.56-14.40Q154.56-13.12 155.52-12.26L155.52-12.26L155.52-12.26Q156.48-11.39 159.94-11.39L159.94-11.39L159.94-11.39Q163.39-11.39 164.35-12.26L164.35-12.26L164.35-12.26Q165.31-13.12 165.31-14.40L165.31-14.40L165.31-31.62L165.31-31.62Q165.31-32.83 164.35-33.70L164.35-33.70L164.35-33.70Q163.39-34.56 159.94-34.56L159.94-34.56L159.94-34.56Q156.48-34.56 155.52-33.70L155.52-33.70L155.52-33.70Q154.56-32.83 154.56-31.62L154.56-31.62ZM200.13 0L200.13 0L190.21 0L190.21 0Q188.99 0 188.45-0.54L188.45-0.54L188.45-0.54Q187.90-1.09 187.90-2.30L187.90-2.30L187.90-43.78L187.90-43.78Q187.90-44.99 188.45-45.54L188.45-45.54L188.45-45.54Q188.99-46.08 190.21-46.08L190.21-46.08L209.79-46.08L209.79-46.08Q218.50-46.08 221.70-42.62L221.70-42.62L221.70-42.62Q224.90-39.17 224.90-33.60L224.90-33.60L224.90-25.41L224.90-25.41Q224.90-19.84 221.70-16.38L221.70-16.38L221.70-16.38Q218.50-12.93 209.79-12.93L209.79-12.93L202.43-12.93L202.43-2.30L202.43-2.30Q202.43-1.09 201.89-0.54L201.89-0.54L201.89-0.54Q201.34 0 200.13 0ZM208.06-34.11L202.30-34.11L202.30-24.45L208.06-24.45L208.06-24.45Q209.92-24.45 210.50-25.41L210.50-25.41L210.50-25.41Q211.07-26.37 211.07-27.58L211.07-27.58L211.07-30.98L211.07-30.98Q211.07-32.19 210.50-33.15L210.50-33.15L210.50-33.15Q209.92-34.11 208.06-34.11L208.06-34.11ZM252.93 0L252.93 0L232.70 0L232.70 0Q231.49 0 230.94-0.54L230.94-0.54L230.94-0.54Q230.40-1.09 230.40-2.30L230.40-2.30L230.40-9.79L230.40-9.79Q230.40-11.01 230.94-11.55L230.94-11.55L230.94-11.55Q231.49-12.10 232.70-12.10L232.70-12.10L249.92-12.10L249.92-12.10Q250.75-12.10 251.17-12.64L251.17-12.64L251.17-12.64Q251.58-13.18 251.58-13.95L251.58-13.95L251.58-13.95Q251.58-15.04 251.17-15.55L251.17-15.55L251.17-15.55Q250.75-16.06 249.92-16.13L249.92-16.13L240.32-17.47L240.32-17.47Q235.84-18.11 233.12-20.42L233.12-20.42L233.12-20.42Q230.40-22.72 230.40-28.10L230.40-28.10L230.40-34.82L230.40-34.82Q230.40-40.26 233.92-43.17L233.92-43.17L233.92-43.17Q237.44-46.08 243.65-46.08L243.65-46.08L261.57-46.08L261.57-46.08Q262.78-46.08 263.33-45.54L263.33-45.54L263.33-45.54Q263.87-44.99 263.87-43.78L263.87-43.78L263.87-36.16L263.87-36.16Q263.87-34.94 263.33-34.40L263.33-34.40L263.33-34.40Q262.78-33.86 261.57-33.86L261.57-33.86L246.66-33.86L246.66-33.86Q245.82-33.86 245.38-33.31L245.38-33.31L245.38-33.31Q244.93-32.77 244.93-31.94L244.93-31.94L244.93-31.94Q244.93-31.10 245.38-30.53L245.38-30.53L245.38-30.53Q245.82-29.95 246.66-29.89L246.66-29.89L256.19-28.61L256.19-28.61Q260.67-27.97 263.42-25.66L263.42-25.66L263.42-25.66Q266.18-23.36 266.18-17.98L266.18-17.98L266.18-11.26L266.18-11.26Q266.18-5.82 262.62-2.91L262.62-2.91L262.62-2.91Q259.07 0 252.93 0ZM318.46 0L318.46 0L288.00 0L288.00 0Q286.78 0 286.24-0.54L286.24-0.54L286.24-0.54Q285.70-1.09 285.70-2.30L285.70-2.30L285.70-13.31L285.70-13.31Q285.70-17.02 286.43-19.42L286.43-19.42L286.43-19.42Q287.17-21.82 288.51-23.36L288.51-23.36L288.51-23.36Q289.86-24.90 291.71-25.79L291.71-25.79L291.71-25.79Q293.57-26.69 295.74-27.33L295.74-27.33L304.32-30.02L304.32-30.02Q305.34-30.27 305.70-30.78L305.70-30.78L305.70-30.78Q306.05-31.30 306.05-32.32L306.05-32.32L306.05-32.32Q306.05-33.28 305.66-33.63L305.66-33.63L305.66-33.63Q305.28-33.98 304.32-33.98L304.32-33.98L290.43-33.98L290.43-33.98Q289.22-33.98 288.67-34.53L288.67-34.53L288.67-34.53Q288.13-35.07 288.13-36.29L288.13-36.29L288.13-43.78L288.13-43.78Q288.13-44.99 288.67-45.54L288.67-45.54L288.67-45.54Q289.22-46.08 290.43-46.08L290.43-46.08L309.31-46.08L309.31-46.08Q314.75-46.08 317.66-43.36L317.66-43.36L317.66-43.36Q320.58-40.64 320.58-35.46L320.58-35.46L320.58-29.44L320.58-29.44Q320.58-24.64 317.89-22.08L317.89-22.08L317.89-22.08Q315.20-19.52 310.59-18.11L310.59-18.11L301.89-15.36L301.89-15.36Q300.93-15.10 300.58-14.78L300.58-14.78L300.58-14.78Q300.22-14.46 300.22-13.44L300.22-13.44L300.22-12.10L318.46-12.10L318.46-12.10Q319.68-12.10 320.22-11.55L320.22-11.55L320.22-11.55Q320.77-11.01 320.77-9.79L320.77-9.79L320.77-2.30L320.77-2.30Q320.77-1.09 320.22-0.54L320.22-0.54L320.22-0.54Q319.68 0 318.46 0ZM359.36 0L359.36 0L328.90 0L328.90 0Q327.68 0 327.14-0.54L327.14-0.54L327.14-0.54Q326.59-1.09 326.59-2.30L326.59-2.30L326.59-13.31L326.59-13.31Q326.59-17.02 327.33-19.42L327.33-19.42L327.33-19.42Q328.06-21.82 329.41-23.36L329.41-23.36L329.41-23.36Q330.75-24.90 332.61-25.79L332.61-25.79L332.61-25.79Q334.46-26.69 336.64-27.33L336.64-27.33L345.22-30.02L345.22-30.02Q346.24-30.27 346.59-30.78L346.59-30.78L346.59-30.78Q346.94-31.30 346.94-32.32L346.94-32.32L346.94-32.32Q346.94-33.28 346.56-33.63L346.56-33.63L346.56-33.63Q346.18-33.98 345.22-33.98L345.22-33.98L331.33-33.98L331.33-33.98Q330.11-33.98 329.57-34.53L329.57-34.53L329.57-34.53Q329.02-35.07 329.02-36.29L329.02-36.29L329.02-43.78L329.02-43.78Q329.02-44.99 329.57-45.54L329.57-45.54L329.57-45.54Q330.11-46.08 331.33-46.08L331.33-46.08L350.21-46.08L350.21-46.08Q355.65-46.08 358.56-43.36L358.56-43.36L358.56-43.36Q361.47-40.64 361.47-35.46L361.47-35.46L361.47-29.44L361.47-29.44Q361.47-24.64 358.78-22.08L358.78-22.08L358.78-22.08Q356.10-19.52 351.49-18.11L351.49-18.11L342.78-15.36L342.78-15.36Q341.82-15.10 341.47-14.78L341.47-14.78L341.47-14.78Q341.12-14.46 341.12-13.44L341.12-13.44L341.12-12.10L359.36-12.10L359.36-12.10Q360.58-12.10 361.12-11.55L361.12-11.55L361.12-11.55Q361.66-11.01 361.66-9.79L361.66-9.79L361.66-2.30L361.66-2.30Q361.66-1.09 361.12-0.54L361.12-0.54L361.12-0.54Q360.58 0 359.36 0Z" fill="url(#editing-glowing-gradient)"></path></g></g><style>text {
  font-size: 64px;
  font-family: Arial Black;
  dominant-baseline: central;
  text-anchor: middle;
}</style></svg>